<svg id="visual" viewBox="0 0 960 540" width="960" height="540" xmlns="http://www.w3.org/2000/svg" xmlns:xlink="http://www.w3.org/1999/xlink" version="1.1"><path d="M0 377L22.8 368.8C45.7 360.7 91.3 344.3 137 345.8C182.7 347.3 228.3 366.7 274 366.2C319.7 365.7 365.3 345.3 411.2 342.8C457 340.3 503 355.7 548.8 362.7C594.7 369.7 640.3 368.3 686 368C731.7 367.7 777.3 368.3 823 364.2C868.7 360 914.3 351 937.2 346.5L960 342L960 541L937.2 541C914.3 541 868.7 541 823 541C777.3 541 731.7 541 686 541C640.3 541 594.7 541 548.8 541C503 541 457 541 411.2 541C365.3 541 319.7 541 274 541C228.3 541 182.7 541 137 541C91.3 541 45.7 541 22.8 541L0 541Z" fill="#fa7268"></path><path d="M0 377L22.8 385C45.7 393 91.3 409 137 409.3C182.7 409.7 228.3 394.3 274 390.3C319.7 386.3 365.3 393.7 411.2 397.3C457 401 503 401 548.8 394.5C594.7 388 640.3 375 686 376.2C731.7 377.3 777.3 392.7 823 400C868.7 407.3 914.3 406.7 937.2 406.3L960 406L960 541L937.2 541C914.3 541 868.7 541 823 541C777.3 541 731.7 541 686 541C640.3 541 594.7 541 548.8 541C503 541 457 541 411.2 541C365.3 541 319.7 541 274 541C228.3 541 182.7 541 137 541C91.3 541 45.7 541 22.8 541L0 541Z" fill="#ef5f67"></path><path d="M0 433L22.8 430.8C45.7 428.7 91.3 424.3 137 424C182.7 423.7 228.3 427.3 274 424C319.7 420.7 365.3 410.3 411.2 411.3C457 412.3 503 424.7 548.8 432.7C594.7 440.7 640.3 444.3 686 446.5C731.7 448.7 777.3 449.3 823 447C868.7 444.7 914.3 439.3 937.2 436.7L960 434L960 541L937.2 541C914.3 541 868.7 541 823 541C777.3 541 731.7 541 686 541C640.3 541 594.7 541 548.8 541C503 541 457 541 411.2 541C365.3 541 319.7 541 274 541C228.3 541 182.7 541 137 541C91.3 541 45.7 541 22.8 541L0 541Z" fill="#e34c67"></path><path d="M0 467L22.8 467.2C45.7 467.3 91.3 467.7 137 464.5C182.7 461.3 228.3 454.7 274 451.2C319.7 447.7 365.3 447.3 411.2 447.8C457 448.3 503 449.7 548.8 450.7C594.7 451.7 640.3 452.3 686 451.3C731.7 450.3 777.3 447.7 823 448.8C868.7 450 914.3 455 937.2 457.5L960 460L960 541L937.2 541C914.3 541 868.7 541 823 541C777.3 541 731.7 541 686 541C640.3 541 594.7 541 548.8 541C503 541 457 541 411.2 541C365.3 541 319.7 541 274 541C228.3 541 182.7 541 137 541C91.3 541 45.7 541 22.8 541L0 541Z" fill="#d53867"></path><path d="M0 498L22.8 498.5C45.7 499 91.3 500 137 496.7C182.7 493.3 228.3 485.7 274 484C319.7 482.3 365.3 486.7 411.2 488.8C457 491 503 491 548.8 493.5C594.7 496 640.3 501 686 504C731.7 507 777.3 508 823 504.3C868.7 500.7 914.3 492.3 937.2 488.2L960 484L960 541L937.2 541C914.3 541 868.7 541 823 541C777.3 541 731.7 541 686 541C640.3 541 594.7 541 548.8 541C503 541 457 541 411.2 541C365.3 541 319.7 541 274 541C228.3 541 182.7 541 137 541C91.3 541 45.7 541 22.8 541L0 541Z" fill="#c62368"></path></svg>